<svg xmlns="http://www.w3.org/2000/svg" width="141" height="182" viewBox="0 0 141 182">
<g>
<path d="M 52.35 171.03 C31.38,164.84 14.01,148.07 7.37,127.63 C5.16,120.82 4.73,117.64 4.69,108.00 C4.66,98.01 5.00,95.53 7.30,89.14 C12.66,74.28 23.65,56.49 40.26,35.82 C48.61,25.42 67.68,5.00 69.04,5.00 C70.27,5.00 91.02,27.86 100.25,39.41 C115.93,58.99 128.14,80.26 131.60,93.98 C134.00,103.50 133.13,120.21 129.77,129.24 C126.10,139.08 121.36,146.46 113.93,153.91 C101.10,166.78 86.16,173.05 68.70,172.92 C61.97,172.87 56.41,172.23 52.35,171.03 ZM 81.81 166.48 C113.57,158.99 134.45,125.31 126.46,94.46 C121.77,76.38 96.77,39.60 74.27,17.68 L 68.29 11.85 L 59.75 21.18 C30.86,52.67 13.15,80.92 9.98,100.54 C6.09,124.62 20.09,150.22 43.82,162.42 C53.66,167.47 70.13,169.24 81.81,166.48 ZM 83.83 147.75 C82.98,147.06 80.90,144.45 79.23,141.95 C77.55,139.44 74.26,136.07 71.92,134.45 C68.28,131.92 66.72,131.50 61.08,131.48 C53.07,131.45 48.66,129.17 46.32,123.85 C44.85,120.52 44.40,120.22 41.56,120.68 C36.76,121.46 29.99,119.19 26.40,115.60 C18.56,107.76 19.98,92.52 29.07,86.87 C31.33,85.47 33.61,82.90 34.67,80.58 C36.97,75.54 43.88,71.00 49.27,71.00 C51.56,71.00 54.86,70.01 57.32,68.57 C59.62,67.24 63.12,65.85 65.09,65.49 C69.04,64.77 76.17,66.31 79.87,68.68 C81.17,69.52 84.36,70.31 86.97,70.45 C96.53,70.97 105.21,77.58 108.68,86.99 C109.59,89.47 110.88,92.18 111.55,93.00 C114.38,96.51 116.00,101.23 116.00,106.00 C116.00,111.68 114.23,115.89 110.67,118.69 C109.37,119.71 107.78,122.15 107.13,124.11 C105.17,130.03 98.76,135.00 93.07,135.00 C89.49,135.00 89.57,134.74 91.54,139.45 C93.41,143.92 92.68,146.79 89.35,148.06 C86.15,149.27 85.69,149.25 83.83,147.75 ZM 87.99 142.75 C87.98,141.61 83.79,134.08 80.74,129.72 C78.64,126.72 81.78,125.68 85.80,128.04 C89.86,130.44 94.27,130.54 98.01,128.33 C100.75,126.71 103.60,122.26 102.56,121.22 C102.27,120.94 98.73,120.66 94.68,120.60 C88.01,120.51 86.61,120.86 79.69,124.37 L 72.06 128.25 L 76.97 132.67 C79.68,135.10 82.85,138.64 84.03,140.54 C86.18,144.03 88.01,145.05 87.99,142.75 ZM 73.94 121.76 L 84.37 116.50 L 95.39 116.27 C105.71,116.06 106.57,115.88 108.96,113.50 C110.89,111.56 111.49,109.94 111.48,106.73 C111.47,104.40 111.12,101.64 110.70,100.60 C110.05,98.95 109.56,99.30 107.09,103.19 C103.93,108.19 101.71,109.56 100.04,107.55 C99.21,106.54 99.61,105.43 101.72,102.92 C104.11,100.08 104.50,98.74 104.50,93.40 C104.50,87.95 104.12,86.71 101.40,83.34 C91.37,70.88 75.80,72.89 71.96,87.13 C71.35,89.43 70.32,91.00 69.43,91.00 C65.09,91.00 67.32,81.68 73.03,75.97 L 76.94 72.06 L 73.07 70.90 C68.23,69.45 63.25,70.34 58.64,73.47 C56.03,75.24 54.20,75.75 51.79,75.39 C48.02,74.82 42.45,77.43 40.20,80.83 C38.82,82.90 38.90,83.00 41.83,83.00 C46.08,83.00 50.15,85.01 49.76,86.93 C49.51,88.20 48.27,88.43 43.31,88.16 C32.95,87.59 27.09,91.99 26.23,100.99 C25.43,109.30 31.15,115.99 39.06,116.00 C43.47,116.00 45.13,114.67 47.48,109.24 C49.63,104.24 48.60,100.56 44.62,99.05 C39.42,97.07 35.05,101.19 38.41,104.90 C40.42,107.12 40.44,108.89 38.46,109.65 C35.72,110.70 33.00,107.10 33.00,102.42 C33.00,96.08 37.67,92.38 44.06,93.66 C47.45,94.34 53.00,99.31 53.00,101.66 C53.00,102.49 53.56,102.97 54.25,102.73 C54.94,102.48 55.36,101.43 55.18,100.39 C53.59,90.92 56.25,80.00 60.15,80.00 C62.42,80.00 62.45,80.96 60.35,86.89 C59.21,90.09 58.92,92.75 59.42,95.40 L 60.14 99.25 L 64.75 98.62 C71.78,97.66 76.10,95.06 78.99,90.08 C82.05,84.78 85.54,83.24 90.89,84.85 C97.19,86.74 99.88,94.46 96.50,101.00 C93.65,106.52 84.74,111.36 73.64,113.42 C71.52,113.81 67.69,115.43 65.14,117.02 C61.15,119.51 60.30,119.72 59.09,118.51 C57.90,117.32 57.89,116.84 59.02,115.48 C61.11,112.96 67.09,110.25 74.63,108.39 C86.78,105.40 93.00,100.89 93.00,95.06 C93.00,87.83 85.94,86.73 82.48,93.41 C79.73,98.74 76.78,100.65 68.00,102.83 C63.88,103.85 59.02,105.46 57.21,106.39 C50.04,110.10 47.66,119.75 52.74,124.46 C57.12,128.52 61.68,127.95 73.94,121.76 Z" fill="rgba(0,0,0,1)"/>
</g>
</svg>